<?xml version="1.0" encoding="UTF-8"?>
<svg id="Capa_2" data-name="Capa 2" xmlns="http://www.w3.org/2000/svg" viewBox="0 0 130.76 130.76">
  <defs>
    <style>
      .cls-1 {
        fill: #234e6e;
      }

      .cls-1, .cls-2 {
        stroke-width: 0px;
      }

      .cls-2 {
        fill: #c3a350;
      }
    </style>
  </defs>
  <g id="Capa_1-2" data-name="Capa 1">
    <g>
      <path class="cls-2" d="m62.49,33.79l-27.62,28.83,2.89,2.77,27.62-28.83-2.89-2.77Z"/>
      <path class="cls-2" d="m82.14,45.2l-36.39,37.58,2.87,2.78,36.39-37.58-2.87-2.78Z"/>
      <path class="cls-2" d="m94.69,65.38l-27.62,28.83,2.89,2.77,27.62-28.83-2.89-2.77Z"/>
      <path class="cls-1" d="m130.76,65.38c0,36.05-29.33,65.38-65.38,65.38S0,101.43,0,65.38,29.33,0,65.38,0s65.38,29.33,65.38,65.38Zm-23.35,0c0-23.16-18.87-42.03-42.03-42.03s-42.03,18.87-42.03,42.03,18.87,42.03,42.03,42.03,42.03-18.87,42.03-42.03Z"/>
    </g>
  </g>
</svg>